<?xml version="1.0" standalone="no"?>
<!DOCTYPE svg PUBLIC "-//W3C//DTD SVG 20010904//EN"
 "http://www.w3.org/TR/2001/REC-SVG-20010904/DTD/svg10.dtd">
<svg version="1.0" xmlns="http://www.w3.org/2000/svg"
 width="410.000000pt" height="410.000000pt" viewBox="0 0 410.000000 410.000000"
 preserveAspectRatio="xMidYMid meet">
<metadata>
Created by potrace 1.14, written by Peter Selinger 2001-2017
</metadata>
<g transform="translate(0.000000,410.000000) scale(0.100000,-0.100000)"
fill="#000000" stroke="none">
<path d="M343 4085 c-163 -44 -284 -165 -328 -328 -11 -44 -14 -315 -14 -1697
0 -1022 4 -1664 10 -1695 23 -123 121 -255 227 -309 118 -60 1 -56 1818 -56
1593 0 1664 1 1716 19 89 31 135 58 194 118 63 62 108 148 124 234 7 37 9 612
7 1715 -2 1555 -4 1662 -20 1702 -67 167 -186 271 -342 301 -31 6 -674 10
-1695 10 -1382 0 -1653 -3 -1697 -14z"/>
</g>
</svg>
